# xmcd CD database file
#
# Track frame offsets:
#	150
#	26012
#	37345
#	51985
#	66465
#	78555
#	91410
#	115687
#	133835
#	155410
#	171757
#	185880
#	202247
#	223680
#	235170
#	254045
#	273187
#	298025
#	312537
#	328492
#
# Disc length: 4727 seconds
#
# Revision: 3
# Processed by: cddbd v1.5.2PL0 Copyright (c) Steve Scherf et al.
# Submitted via: CDex 1.70beta3
#
DISCID=4c127514
DTITLE=鈴木章治 - ベスト・オブ・鈴木章治
DYEAR=2002
DGENRE=Jazz
TTITLE0=鈴懸の径
TTITLE1=森の小径
TTITLE2=シャイン
TTITLE3=煙が目にしみる
TTITLE4=アマポーラ
TTITLE5=セントルイス・ブルース
TTITLE6=朝日のようにさわやかに
TTITLE7=我が心のジョージア
TTITLE8=シャイニー・ストッキングス
TTITLE9=ムーングロウ
TTITLE10=アイ・サレンダー・ディア
TTITLE11=私の彼氏
TTITLE12=ス・ワンダフル
TTITLE13=センド・イン・ザ・クラウン
TTITLE14=ミスティ
TTITLE15=いそしぎ
TTITLE16=恋人よ我に帰れ
TTITLE17=時のたつまま
TTITLE18=メモリーズ・オブ・ユー
TTITLE19=鈴懸の径 (新録音)
EXTD=YEAR: 2002
EXTT0=
EXTT1=
EXTT2=
EXTT3=
EXTT4=
EXTT5=
EXTT6=
EXTT7=
EXTT8=
EXTT9=
EXTT10=
EXTT11=
EXTT12=
EXTT13=
EXTT14=
EXTT15=
EXTT16=
EXTT17=
EXTT18=
EXTT19=
PLAYORDER=
